<svg xmlns="http://www.w3.org/2000/svg" version="1.1" xmlns:xlink="http://www.w3.org/1999/xlink" xmlns:svgjs="http://svgjs.dev/svgjs" viewBox="0 0 800 800"><defs><linearGradient x1="50%" y1="0%" x2="50%" y2="100%" id="uundulate-grad"><stop stop-color="hsl(184, 74%, 44%)" stop-opacity="1" offset="45%"></stop><stop stop-color="hsl(332, 87%, 70%)" stop-opacity="1" offset="100%"></stop></linearGradient></defs><g stroke-width="1" stroke="url(#uundulate-grad)" fill="none"><path d="M613.833790499679 215.47180942244108C641.0196496000956 286.6692556336436 637.3746303986682 379.9504968665233 605.0349638613404 490.85940744927143C572.6952973240127 601.7683180320194 548.0012516872546 720.0806377110789 458.6033911205061 747.8345802196327C369.20553055375774 775.588522728186 216.17288538428966 708.5909653836044 175.9252331409486 624.0783314903282C135.67758089760753 539.5656975970519 261.62752732477645 460.7044542442461 265.41466035246987 342.1739375319064C269.2017933801633 223.6434208195668 150.53510087661198 95.35315791618285 194.10347167387687 55.131851271098014C237.67184247114182 14.910544626013177 387.0990237572993 115.70750768730272 474.5428401793415 149.1116656354992C561.9866566013837 182.5158235836957 586.6479313992623 144.2743632112385 613.833790499679 215.47180942244108C641.0196496000956 286.6692556336436 637.3746303986682 379.9504968665233 605.0349638613404 490.85940744927143 "></path><path d="M600.4691805007976 227.00486329520834C625.9559234074383 293.7524691182108 622.5387179061 381.20363277403544 592.2202805273553 485.18073644536173C561.9018431486106 589.157840116688 538.7511753641498 700.0756398158063 454.9406810828232 726.0949609175753C371.1301868014965 752.1142820193445 227.6620819551202 689.304072008799 189.92990797698798 610.0734777338525C152.1977339988557 530.842883458906 270.27580877432655 456.9104678156507 273.82624598778915 345.7881083978323C277.3766832012517 234.66574898001375 166.12665897917236 114.39362750809136 206.9720066016082 76.68615252832433C247.8173542240441 38.97867754855724 387.90533667981674 133.47583041851624 469.8839145754813 164.79222849495045C551.8624924711459 196.10862657138466 574.9824375941571 160.257257472206 600.4691805007976 227.00486329520834C625.9559234074383 293.7524691182108 622.5387179061 381.20363277403544 592.2202805273553 485.18073644536173 "></path><path d="M587.1045705019163 238.53785613281946C610.8921972147809 300.83562156762173 607.7028054135319 382.45670764639146 579.4055971933701 479.502004406296C551.1083889732084 576.5473011662004 529.5010990410451 680.0705808853775 451.27797104514013 704.355280580362C373.0548430492353 728.6399802753464 239.15127852595072 670.0171175988373 203.9345828130273 596.0685629422208C168.7178871001039 522.120008285604 278.92409022387665 453.1164203518989 282.2378316231084 349.40221822860167C285.55157302234016 245.68801610530454 181.71821708173275 133.4340360648436 219.84054152933953 98.24039275039434C257.9628659769463 63.04674943594512 388.7116496023341 151.2440921145735 465.2249889716211 180.4727303192454C541.7383283409081 209.70136852391732 563.3169437890517 176.2400906980173 587.1045705019163 238.53785613281946C610.8921972147809 300.83562156762173 607.7028054135319 382.45670764639146 579.4055971933701 479.502004406296 "></path><path d="M573.739945244246 250.0708794880087C595.8284557633344 307.9188045346108 592.8668776621747 383.7098130363256 566.5908986005959 473.8233028848083C540.3149195390172 563.9367927332912 520.2510074591512 660.065552472527 447.61524574866803 682.6156307607268C374.979484038185 705.1657090489266 250.64045983799218 650.730193706454 217.93924239027757 582.0636786681671C185.23802494256296 513.3971636298801 287.5723564146377 449.32240340572537 290.6494019996386 353.0163585769494C293.7264475846395 256.7103137481734 197.30975992550407 152.474475139174 232.7090611982818 119.79466349004252C268.10836247105954 87.11485184091106 389.5179472660625 169.01238432820884 460.5660481089718 196.1532626611185C531.6141489518811 223.29414099402817 551.6514347251575 192.22295444140667 573.739945244246 250.0708794880087C595.8284557633344 307.9188045346108 592.8668776621747 383.7098130363256 566.5908986005959 473.8233028848083 "></path><path d="M560.3753352453647 261.6038723256198C580.7647295706772 315.0019569840217 578.0309651696066 384.9628879086815 553.7762152666107 468.1445708457426C529.5214653636151 551.3262537828036 511.00093113604635 640.0604935420981 443.9525357109851 660.8759504235135C376.90414028592375 681.6914073049287 262.1296564088227 631.4432392964923 231.9439172263169 568.0587638765352C201.75817804381114 504.674288456578 296.2206378641878 445.5283559419736 299.0609876349579 356.6304684077189C301.90133740572793 267.73258087346414 212.90131802806445 171.5148836959262 245.57759612601313 141.3489037121126C278.2538742239618 111.18292372829893 390.32426018857996 186.7806460242661 455.9071225051116 211.83376448541344C521.4899848216432 236.88688294656083 539.9859409200523 208.20578766721792 560.3753352453647 261.6038723256198C580.7647295706772 315.0019569840217 578.0309651696066 384.9628879086815 553.7762152666107 468.1445708457426 "></path><path d="M547.0107252464834 273.13686516323094C565.7010033780198 322.08510943343265 563.1950526770385 386.21596278103743 540.9615319326257 462.46583880667674C518.7280111882129 538.715714832316 501.7508548129417 620.0554346116694 440.28982567330206 639.1362700863001C378.8287965336625 658.2171055609308 273.61885297965324 612.1562848865308 245.94859206235628 554.0538490849033C218.27833114505927 495.951413283276 304.86891931373793 441.7343084782219 307.47257327027717 360.24457823848843C310.07622722681634 278.7548479987549 228.49287613062484 190.55529225267844 258.44613105374447 162.9031439341826C288.3993859768641 135.2509956156868 391.13057311109736 204.54890772032337 451.2481969012514 227.51426630970843C511.36582069140536 250.47962489909355 528.320447114947 224.18862089302922 547.0107252464834 273.13686516323094C565.7010033780198 322.08510943343265 563.1950526770385 386.21596278103743 540.9615319326257 462.46583880667674 "></path><path d="M533.6461152476021 284.6698885184202C550.6372771853626 329.16829240042176 548.3591401844703 387.4690681709716 528.1468485986405 456.78713728518915C507.9345570128107 526.1052063994066 492.5007784898369 600.0504061988188 436.62711563561913 617.3966202666647C380.75345278140134 634.7428343345109 285.10804955048377 592.8693609941472 259.9532668983956 540.0489648108496C234.79848424630745 487.228568627552 313.51720076328803 437.9402915320484 315.8841589055964 363.85871858683606C318.2511170479048 289.77714564162375 244.08443423318522 209.59573132700882 271.3146659814758 184.45741467383078C298.5448977297664 159.31909802065275 391.93688603361477 222.3171999339587 446.5892712973912 243.19479865158155C501.2416565611676 264.07239736920434 516.6549533098417 240.1714846364186 533.6461152476021 284.6698885184202C550.6372771853626 329.16829240042176 548.3591401844703 387.4690681709716 528.1468485986405 456.78713728518915 "></path><path d="M520.2815052487208 296.20289661482036C535.5735509927051 336.2514601086218 533.5232276919022 388.72215830211667 515.3321652646554 451.1084205049124C497.14110283740854 513.4946827077081 483.250702166732 580.0453625271791 432.9644055979361 595.6569551882405C382.6781090291401 611.268547849302 296.5972461213143 573.5824218429748 273.95794173443494 526.0440652780069C251.31863734755564 478.505708713039 322.1654822128381 434.14625932708566 324.2957445409157 367.47284367639463C326.4260068689932 300.7994280257036 259.6759923357456 228.63615514255014 284.18320090920713 206.0116701546899C308.69040948266866 183.38718516682968 392.74319895613223 240.08547688880503 441.93034569353097 258.8753157346656C491.1174924309297 277.6651545805261 504.9894595047365 256.1543331210189 520.2815052487208 296.20289661482036C535.5735509927051 336.2514601086218 533.5232276919022 388.72215830211667 515.3321652646554 451.1084205049124 "></path><path d="M506.9168952498395 307.73593522879867C520.5098248000478 343.33465833439993 518.6873151993341 389.97527895083977 502.5174819306702 445.42973424221384C486.34764866200635 500.8841895335878 474.0006258436273 560.0403493731176 429.30169556025305 573.9173206273945C384.60276527687887 587.7942918816711 308.08644269214483 554.2955132093803 287.9626165704743 512.0391962627423C267.83879044880376 469.7828793161041 330.8137636623882 430.3522576397012 332.7073301762349 371.0869992835313C334.60089669008164 311.82174092736153 275.267550438306 247.67660947566958 297.05173583693846 227.5659561531271C318.8359212355709 207.45530283058469 393.54951187864964 257.8537843612295 437.27142008967076 274.55586333532773C480.9933283006919 291.25794230942597 493.3239656996311 272.13721212319734 506.9168952498395 307.73593522879867C520.5098248000478 343.33465833439993 518.6873151993341 389.97527895083977 502.5174819306702 445.42973424221384 "></path><path d="M493.5522852509582 319.26891280762067C505.44609860739047 350.4177955250218 503.85140270676595 391.22833856440667 489.70279859668506 439.75098694435894C475.5541944866043 488.27363532431116 464.75054952052255 540.0352751838997 425.63898552257007 552.1776250313919C386.52742152461764 564.3199748788841 319.57563926297536 535.0085435406296 301.96729140651365 498.0342662123213C284.35894355005195 461.0599888840129 339.4620451119383 426.55819491716034 341.1189158115542 374.7010938555118C342.77578651117005 322.8439927938632 290.8591085408664 266.7170027736327 309.9202707646698 249.1201811164081C328.98143298847316 231.5233594591835 394.35582480116705 275.6220307984977 432.61249448581054 290.23634990083366C470.86916417045404 304.8506690031696 481.65847189452586 288.1200300902196 493.5522852509582 319.26891280762067C505.44609860739047 350.4177955250218 503.85140270676595 391.22833856440667 489.70279859668506 439.75098694435894 "></path><path d="M480.1876752520768 330.8019361628099C490.38237241473314 357.50097849201086 489.0154902141978 392.48144395434076 476.8881152626999 434.07228542287135C464.7607403112021 475.6631268914018 455.5004731974177 520.0302467710491 421.9762754848871 530.4379752117568C388.4520777723564 540.8457036524644 331.0648358338059 515.7216196482461 315.971966242553 484.02938193826753C300.8790966513001 452.33714422828893 348.1103265614884 422.7641779709868 349.5305014468735 378.31523420385946C350.9506763322585 333.8662904367321 306.45066664342676 285.7574418479631 322.78880569240107 270.6744518560563C339.12694474137544 255.59146186414944 395.1621377236845 293.3903230121331 427.95356888195033 305.9168822427067C460.74500004021615 318.4434414732804 469.9929780894206 304.10289383360896 480.1876752520768 330.8019361628099C490.38237241473314 357.50097849201086 489.0154902141978 392.48144395434076 476.8881152626999 434.07228542287135 "></path><path d="M466.8230652531956 342.33495951799915C475.3186462220758 364.5841614589999 474.1795777216297 393.73454934427485 464.0734319287148 428.39358390138364C453.9672861357999 463.05261845849236 446.25039687431297 500.02521835819846 418.3135654472041 508.69832539212143C390.3767340200952 517.3714324260445 342.5540324046364 496.43469575586266 329.97664107859237 470.02449766421387C317.39924975254826 443.6142995725651 356.7586080110385 418.97016102481325 357.94208708219276 381.9293745522071C359.12556615334694 344.88858807960094 322.04222474598714 304.7978809222935 335.6573406201324 292.2287225957045C349.2724564942777 279.65956426911544 395.9684506462019 311.1586152257684 423.2946432780901 321.59741458457984C450.6208359099783 332.03621394339126 458.3274842843154 320.08575757699833 466.8230652531956 342.33495951799915C475.3186462220758 364.5841614589999 474.1795777216297 393.73454934427485 464.0734319287148 428.39358390138364 "></path><path d="M453.4584552543143 353.8679370968212C460.25492002941843 371.66729864962184 459.34366522906157 394.98760895784176 451.25874859472964 422.7148366035288C443.1738319603977 450.4420642492158 437.0003205512082 480.02014416898066 414.65085540952106 486.9586297961191C392.301390267834 493.89711542325745 354.04322897546695 477.147726087112 343.9813159146317 456.019567613793C333.91940285379644 434.8914091404739 365.4068894605887 415.17609830227246 366.353672717512 385.54346912418754C367.30045597443535 355.9108399461026 337.6337828485475 323.83827422025666 348.52587554786373 313.7829475589854C359.41796824718 303.72762089771425 396.7747635687193 328.9268616630366 418.6357176742299 337.27790115008577C440.4966717797405 345.62894063713486 446.6619904792101 336.0685755440206 453.4584552543143 353.8679370968212C460.25492002941843 371.66729864962184 459.34366522906157 394.98760895784176 451.25874859472964 422.7148366035288 "></path><path d="M440.09384525543294 365.4009757107995C445.1911938367611 378.75049687539996 444.50775273649344 396.2407296065649 438.4440652607445 417.0361503408302C432.3803777849956 437.83157107509544 427.7502442281034 460.01513101491906 410.9881453718381 465.2189952352729C394.22604651557276 470.42285945562674 365.5324255462975 457.8608174535176 357.985990750671 442.0146985985283C350.43955595504457 426.168579743539 374.05517091013877 411.3820966148879 374.76525835283127 389.15762473132423C375.47534579552376 366.93315284776054 353.2253409511079 342.8787285533761 361.39441047559507 335.3372335574227C369.5634800000822 327.79573856146925 397.5810764912368 346.6951691354611 413.9767920703697 352.9584487507479C430.3725076495026 359.22172836603477 434.99649667410483 352.051454546199 440.09384525543294 365.4009757107995C445.1911938367611 378.75049687539996 444.50775273649344 396.2407296065649 438.4440652607445 417.0361503408302 "></path><path d="M426.7292199977626 376.9339685484106C430.12745238531465 385.8336493248109 429.67182498513625 397.4938044789209 425.6293666679703 411.35741830176437C421.5869083508043 425.22103212460786 418.5001526462096 440.01007208449033 407.325420075366 443.47931489805956C396.15068750452247 446.9485577116287 377.02160685833894 438.573863043556 371.9906503279213 428.0097838068965C366.9596937975037 417.44570457023696 382.7034371008998 407.58804915113626 383.1768287293615 392.7717345620938C383.6502203578232 377.95541997305133 368.81688379487923 361.9191371101283 374.26293014453734 356.89147377949274C379.70897649419544 351.8638104488571 398.38737415496513 364.46343083151834 409.3178512077204 368.6389505750429C420.2483282604757 372.81447031856743 423.3309876102105 368.03428777201026 426.7292199977626 376.9339685484106C430.12745238531465 385.8336493248109 429.67182498513625 397.4938044789209 425.6293666679703 411.35741830176437 "></path><path d="M413.3646099988813 388.4669919035998C415.0637261926573 392.9168322918 414.8359124925681 398.74690986885497 412.81468333398516 405.6787167802767C410.7934541754022 412.61052369169846 409.2500763231048 420.00504367163967 403.662710037683 421.7396650784243C398.07534375226123 423.4742864852089 388.51080342916947 419.28693915117253 385.9953251639607 414.0048995328428C383.4798468987518 408.72285991451304 391.3517185504499 403.79403220496266 391.5884143646807 396.38587491044143C391.8251101789116 388.9777176159202 384.4084418974396 380.9595761844587 387.13146507226867 378.4457445191409C389.8544882470977 375.93191285382306 399.1936870774826 382.2317230451537 404.6589256038602 384.31948291691594C410.12416413023783 386.4072427886783 411.66549380510526 384.0171515153997 413.3646099988813 388.4669919035998C415.0637261926573 392.9168322918 414.8359124925681 398.74690986885497 412.81468333398516 405.6787167802767 "></path></g></svg>